# xmcd CD database file
# 
# Track frame offsets:
# 	150
# 	16466
# 	30282
# 	45528
# 	52554
# 	75176
# 	101559
# 	116712
# 	130576
# 	150001
# 	164964
# 	182911
# 	202884
# 	217956
# 	225508
# 	247902
# 
# Disc length: 3582 seconds
# 
# Submitted via: Nero 5.5.10.20
# 
# Revision: 0
# Processed by: cddbd v1.4PL0 Copyright (c) Steve Scherf et al.
#
DISCID=b20dfc10
DTITLE=Lost Gonzo Band - Hands of Time
DYEAR=1900
DGENRE=
TTITLE0=Free My Spirit
TTITLE1=Take Off Your Shoes And Dance
TTITLE2=Isabella
TTITLE3=21
TTITLE4=Big Ol' White Boys
TTITLE5=Room Full Of Strangers
TTITLE6=Sweet Woman
TTITLE7=Deja-DidDidjeri-Vu
TTITLE8=Caution To The Wind
TTITLE9=Dead Armadillo
TTITLE10=Shifting Sands
TTITLE11=Long Way To Go
TTITLE12=Same Guy
TTITLE13=Eleven
TTITLE14=Hands Of Time
TTITLE15=Sleepy Train
EXTD=
EXTT0=
EXTT1=
EXTT2=
EXTT3=
EXTT4=
EXTT5=
EXTT6=
EXTT7=
EXTT8=
EXTT9=
EXTT10=
EXTT11=
EXTT12=
EXTT13=
EXTT14=
EXTT15=
PLAYORDER=
